<svg width="124" height="158" viewBox="0 0 124 158" fill="none" xmlns="http://www.w3.org/2000/svg">
<path fill-rule="evenodd" clip-rule="evenodd" d="M13 44.5082V156C13 157.105 13.8954 158 15 158H122C123.105 158 124 157.105 124 156V15C124 13.8954 123.105 13 122 13H44.5082L13 44.5082Z" fill="#303030"/>
<path fill-rule="evenodd" clip-rule="evenodd" d="M0.000244141 31.5082V143C0.000244141 144.105 0.895673 145 2.00024 145H109C110.105 145 111 144.105 111 143V2C111 0.895431 110.105 0 109 0H31.5085L0.000244141 31.5082Z" fill="white"/>
<path fill-rule="evenodd" clip-rule="evenodd" d="M0.000120163 31L31.0002 -0.000125885V29C31.0002 30.1046 30.1048 31 29.0002 31H0.000120163Z" fill="#CDCDCD"/>
<rect x="16.0002" y="53" width="108" height="47" fill="#F3960A"/>
<rect width="108" height="7" transform="matrix(1 0 0 -1 16.0002 107)" fill="#FFCD1A"/>
<path fill-rule="evenodd" clip-rule="evenodd" d="M27.0303 71H40.6959C43.7895 71 46.3123 73.5299 46.3123 76.632C46.3123 79.7341 43.7895 82.264 40.6959 82.264H27.0303V74.2226H28.6221V80.6678H40.6659C42.8884 80.6678 44.6905 78.8607 44.6905 76.632C44.6905 74.4033 42.8884 72.5962 40.6659 72.5962H27.0002V71H27.0303Z" fill="white"/>
<path fill-rule="evenodd" clip-rule="evenodd" d="M91.6343 71H87.9101C86.8288 71 85.7776 71.4518 85.0268 72.2348L82.0233 75.3671L79.0199 72.2348C78.2691 71.4518 77.2179 71 76.1366 71H72.4124V72.5962H76.1366C76.7974 72.5962 77.4281 72.8673 77.8786 73.3191L85.237 81.0593C85.9879 81.8424 87.0391 82.2941 88.1203 82.2941H91.6043V80.6979H88.1203C87.4596 80.6979 86.8288 80.4268 86.3783 79.9751L83.0745 76.5718L86.1381 73.4094C86.5886 72.9275 87.2193 72.6866 87.88 72.6866H91.6043V71H91.6343ZM77.5783 79.9449L79.8308 77.6259L80.9421 78.7703L78.7496 81.0593C77.9987 81.8424 76.9475 82.2941 75.8663 82.2941H72.3823V80.6979H75.8663C76.497 80.6678 77.1277 80.3967 77.5783 79.9449Z" fill="white"/>
<path fill-rule="evenodd" clip-rule="evenodd" d="M48.4446 75.8489H50.0664C50.4268 74.0117 52.0487 72.6263 54.0009 72.6263H62.0201C63.9723 72.6263 65.5942 74.0117 65.9546 75.8489H67.5765C67.186 73.1082 64.8433 71.0301 62.0201 71.0301H54.0009C51.1777 71 48.835 73.1082 48.4446 75.8489ZM67.6065 77.4452H65.9846C65.6242 79.2823 64.0024 80.6677 62.0501 80.6677H54.0009C52.0487 80.6677 50.4268 79.2823 50.0664 77.4452H48.4446C48.835 80.1859 51.1777 82.264 54.0009 82.264H62.0201C64.8734 82.2941 67.216 80.1859 67.6065 77.4452Z" fill="white"/>
<path fill-rule="evenodd" clip-rule="evenodd" d="M107.733 79.9446L104.639 76.7521L104.429 76.5413L103.318 75.3968L103.017 75.0655L100.314 72.2646C99.5632 71.4815 98.512 71.0298 97.4308 71.0298H93.7065V72.626H97.4308C98.0916 72.626 98.7223 72.8971 99.1728 73.379L102.236 76.5413L101.185 77.6255L98.9325 79.9446C98.482 80.4265 97.8513 80.6674 97.1905 80.6674H93.7065V82.2938H97.1905C98.2718 82.2938 99.323 81.842 100.074 81.059L101.936 79.1314L103.348 77.6557L106.621 81.0288C107.372 81.8119 108.423 82.2637 109.505 82.2637H112.989V80.6674H109.505C108.814 80.6674 108.213 80.3964 107.733 79.9446Z" fill="white"/>
<path fill-rule="evenodd" clip-rule="evenodd" d="M109.234 71C108.153 71 107.102 71.4518 106.351 72.2348L104.398 74.2828L105.51 75.4273L107.522 73.3492C107.973 72.8673 108.603 72.5962 109.264 72.5962H112.988V71H109.234Z" fill="white"/>
<path d="M75.3555 75.8486H69.1084V77.4449H75.3555V75.8486Z" fill="white"/>
<path d="M76.7966 85.5764C76.7366 85.5162 76.6465 85.456 76.5564 85.4259C76.4663 85.3957 76.3762 85.3656 76.256 85.3656H73.1024C73.0424 85.3656 72.9823 85.3355 72.9522 85.3054C72.9222 85.2753 72.8922 85.215 72.8922 85.1548C72.8922 85.0946 72.9222 85.0343 72.9522 85.0042C72.9823 84.9741 73.0424 84.944 73.1024 84.944H76.5564C76.6465 84.944 76.7065 84.9139 76.7366 84.8536C76.7966 84.7934 76.8267 84.7331 76.8267 84.6729C76.8267 84.5826 76.7966 84.5223 76.7366 84.4922C76.6765 84.432 76.6164 84.4019 76.5564 84.4019H73.1024C72.9823 84.4019 72.8922 84.432 72.8021 84.4621C72.712 84.4922 72.6219 84.5524 72.5618 84.6127C72.5017 84.6729 72.4417 84.7633 72.4116 84.8536C72.3816 84.944 72.3516 85.0343 72.3516 85.1548C72.3516 85.2753 72.3816 85.3656 72.4116 85.456C72.4417 85.5463 72.5017 85.6367 72.5618 85.6969C72.6219 85.7571 72.712 85.8174 72.8021 85.8475C72.8922 85.8776 72.9823 85.9077 73.1024 85.9077H76.256C76.3161 85.9077 76.3762 85.9379 76.4062 85.968C76.4362 85.9981 76.4663 86.0583 76.4663 86.1186C76.4663 86.1788 76.4362 86.239 76.4062 86.2691C76.3762 86.2993 76.3161 86.3294 76.256 86.3294H72.772C72.6819 86.3294 72.6219 86.3595 72.5918 86.4197C72.5318 86.48 72.5017 86.5402 72.5017 86.6004C72.5017 86.6908 72.5318 86.751 72.5918 86.7811C72.6519 86.8414 72.712 86.8715 72.772 86.8715H76.226C76.3461 86.8715 76.4362 86.8414 76.5263 86.8113C76.6164 86.7811 76.7065 86.7209 76.7666 86.6607C76.8267 86.6004 76.8867 86.5101 76.9168 86.4197C76.9468 86.3294 76.9769 86.239 76.9769 86.1186C76.9769 85.9981 76.9468 85.9077 76.9168 85.8174C76.9468 85.727 76.8867 85.6367 76.7966 85.5764Z" fill="white"/>
<path d="M92.6851 84.4019C92.595 84.4019 92.5349 84.432 92.5049 84.4922C92.4448 84.5524 92.4148 84.6127 92.4148 84.6729V85.6367C92.4148 85.6969 92.4148 85.7873 92.3847 85.8475C92.3547 85.9379 92.3247 85.9981 92.2946 86.0583C92.2345 86.1186 92.1745 86.1788 92.0844 86.239C91.9943 86.2993 91.9042 86.2993 91.754 86.2993H89.5014C89.3813 86.2993 89.2611 86.2691 89.171 86.239C89.0809 86.1788 89.0209 86.1186 88.9908 86.0583C88.9308 85.9981 88.9007 85.9077 88.9007 85.8475C88.8707 85.7571 88.8707 85.6969 88.8707 85.6367V84.6729C88.8707 84.5826 88.8407 84.5223 88.7806 84.4922C88.7205 84.432 88.6605 84.4019 88.6004 84.4019C88.5103 84.4019 88.4502 84.432 88.4202 84.4922C88.3601 84.5524 88.3301 84.6127 88.3301 84.6729V85.6367C88.3301 85.7873 88.3601 85.9077 88.3902 86.0583C88.4502 86.2089 88.5103 86.3294 88.6004 86.4499C88.6905 86.5703 88.7806 86.6607 88.9007 86.751C89.0209 86.8414 89.171 86.8715 89.3212 86.8715H91.9042C92.0543 86.8715 92.2045 86.8414 92.3547 86.751C92.4748 86.6607 92.595 86.5703 92.6851 86.4499C92.7752 86.3294 92.8352 86.2089 92.8953 86.0583C92.9554 85.9077 92.9554 85.7571 92.9554 85.6367V84.6729C92.9554 84.5826 92.9253 84.5223 92.8653 84.4922C92.8052 84.432 92.7451 84.4019 92.6851 84.4019Z" fill="white"/>
<path d="M100.734 84.7937C100.644 84.6732 100.524 84.5829 100.404 84.4925C100.283 84.4022 100.133 84.3721 99.953 84.3721H96.6492C96.5591 84.3721 96.499 84.4022 96.469 84.4624C96.4089 84.5227 96.3789 84.5829 96.3789 84.6431V86.5707C96.3789 86.661 96.4089 86.7212 96.469 86.7514C96.5291 86.8116 96.5891 86.8417 96.6492 86.8417H100.013C100.163 86.8417 100.313 86.7815 100.434 86.7212C100.554 86.6309 100.644 86.5405 100.734 86.4201C100.824 86.2996 100.884 86.1791 100.944 86.0285C101.004 85.878 101.004 85.7274 101.004 85.6069C101.004 85.4563 100.974 85.3057 100.944 85.1852C100.884 85.0648 100.824 84.9142 100.734 84.7937ZM100.434 85.8478C100.404 85.9382 100.373 85.9984 100.343 86.0587C100.283 86.1189 100.223 86.1791 100.133 86.2394C100.043 86.2996 99.953 86.2996 99.8028 86.2996H96.8895V84.9142H99.8028C99.923 84.9142 100.043 84.9443 100.133 84.9744C100.223 85.0347 100.283 85.0949 100.343 85.1551C100.404 85.2154 100.434 85.3057 100.434 85.366C100.464 85.4563 100.464 85.5165 100.464 85.5768C100.464 85.637 100.464 85.7876 100.434 85.8478Z" fill="white"/>
<path d="M104.699 84.4019C104.608 84.4019 104.548 84.432 104.518 84.4922C104.458 84.5524 104.428 84.6127 104.428 84.6729V86.6004C104.428 86.6908 104.458 86.751 104.518 86.7811C104.578 86.8414 104.638 86.8715 104.699 86.8715C104.789 86.8715 104.849 86.8414 104.879 86.7811C104.939 86.7209 104.969 86.6607 104.969 86.6004V84.6729C104.969 84.5826 104.939 84.5223 104.879 84.4922C104.819 84.432 104.759 84.4019 104.699 84.4019Z" fill="white"/>
<path d="M112.928 85.215C112.868 85.0644 112.808 84.944 112.718 84.8235C112.628 84.703 112.538 84.6127 112.417 84.5223C112.297 84.432 112.147 84.4019 111.997 84.4019H109.414C109.264 84.4019 109.114 84.432 108.963 84.5223C108.843 84.6127 108.723 84.703 108.633 84.8235C108.543 84.944 108.483 85.0644 108.423 85.215C108.363 85.3656 108.363 85.5162 108.363 85.6367C108.363 85.7873 108.393 85.9077 108.423 86.0583C108.483 86.2089 108.543 86.3294 108.633 86.4499C108.723 86.5703 108.813 86.6607 108.933 86.751C109.054 86.8414 109.204 86.8715 109.354 86.8715H111.937C112.087 86.8715 112.237 86.8414 112.387 86.751C112.508 86.6607 112.628 86.5703 112.718 86.4499C112.808 86.3294 112.868 86.2089 112.928 86.0583C112.988 85.9077 112.988 85.7571 112.988 85.6367C113.018 85.4861 112.988 85.3656 112.928 85.215ZM112.447 85.8475C112.417 85.9379 112.387 85.9981 112.357 86.0583C112.297 86.1186 112.237 86.1788 112.147 86.239C112.057 86.2993 111.967 86.2993 111.817 86.2993H109.504C109.384 86.2993 109.264 86.2691 109.174 86.239C109.084 86.1788 109.024 86.1186 108.994 86.0583C108.933 85.9981 108.903 85.9077 108.903 85.8475C108.873 85.7571 108.873 85.6969 108.873 85.6367C108.873 85.5764 108.873 85.4861 108.903 85.4259C108.933 85.3355 108.963 85.2753 108.994 85.215C109.054 85.1548 109.114 85.0946 109.174 85.0343C109.264 84.9741 109.354 84.9741 109.504 84.9741H111.817C111.937 84.9741 112.057 85.0042 112.147 85.0343C112.237 85.0946 112.297 85.1548 112.357 85.215C112.417 85.2753 112.447 85.3656 112.447 85.4259C112.478 85.5162 112.478 85.5764 112.478 85.6367C112.478 85.6969 112.478 85.7873 112.447 85.8475Z" fill="white"/>
<path d="M84.6357 84.4019H80.7312C80.6411 84.4019 80.5811 84.432 80.551 84.4922C80.491 84.5524 80.4609 84.6127 80.4609 84.6729C80.4609 84.7633 80.491 84.8235 80.551 84.8536C80.6111 84.9139 80.6712 84.944 80.7312 84.944H81.6323H82.4132V85.9077V86.2089V86.6306C82.4132 86.7209 82.4432 86.7811 82.5033 86.8113C82.5633 86.8715 82.6234 86.9016 82.6835 86.9016C82.7736 86.9016 82.8337 86.8715 82.8637 86.8113C82.9238 86.751 82.9538 86.6908 82.9538 86.6306V86.2089V85.9077V84.944H83.5244H84.0651H84.6657C84.7258 84.944 84.7859 84.9139 84.846 84.8536C84.906 84.7934 84.906 84.7331 84.906 84.6729C84.906 84.5826 84.876 84.5223 84.8159 84.4922C84.7859 84.432 84.6958 84.4019 84.6357 84.4019Z" fill="white"/>
</svg>
