<svg width="1075" height="251" viewBox="0 0 1075 251" fill="none" xmlns="http://www.w3.org/2000/svg">
<path d="M82.6758 35.4062C82.6758 39.7031 82.2038 43.528 81.2598 46.8809C80.3158 50.2012 78.9811 53.0983 77.2559 55.5723C75.5632 58.0462 73.5124 60.1458 71.1035 61.8711C68.7272 63.5964 66.0742 64.9798 63.1445 66.0215C60.2148 67.0632 57.0573 67.8281 53.6719 68.3164C50.2865 68.7721 46.7546 69 43.0762 69H0.498047V1.91016H42.9785C46.6569 1.91016 50.1888 2.1543 53.5742 2.64258C56.9596 3.09831 60.1172 3.84701 63.0469 4.88867C66.0091 5.93034 68.6947 7.3138 71.1035 9.03906C73.5124 10.7318 75.5632 12.8314 77.2559 15.3379C78.9811 17.8118 80.3158 20.709 81.2598 24.0293C82.2038 27.3496 82.6758 31.1419 82.6758 35.4062ZM64.4141 35.4062C64.4141 32.1836 63.9909 29.3841 63.1445 27.0078C62.3307 24.6315 60.9961 22.6784 59.1406 21.1484C57.3177 19.5859 54.9251 18.4303 51.9629 17.6816C49.0007 16.9004 45.3874 16.5098 41.123 16.5098H18.6133V54.4004H41.123C45.3874 54.4004 49.0007 54.026 51.9629 53.2773C54.9251 52.4961 57.3177 51.3242 59.1406 49.7617C60.9961 48.1667 62.3307 46.181 63.1445 43.8047C63.9909 41.4284 64.4141 38.6289 64.4141 35.4062ZM181.045 35.5039C181.045 41.2656 179.987 46.36 177.871 50.7871C175.755 55.1816 172.728 58.86 168.789 61.8223C164.85 64.7845 160.065 67.0306 154.434 68.5605C148.835 70.0579 142.536 70.8066 135.537 70.8066C128.538 70.8066 122.207 70.0579 116.543 68.5605C110.911 67.0306 106.11 64.7845 102.139 61.8223C98.1673 58.86 95.1074 55.1816 92.959 50.7871C90.8105 46.36 89.7363 41.2656 89.7363 35.5039C89.7363 29.7422 90.8105 24.6641 92.959 20.2695C95.1074 15.8424 98.1673 12.1478 102.139 9.18555C106.11 6.22331 110.911 3.99349 116.543 2.49609C122.207 0.966146 128.538 0.201172 135.537 0.201172C142.536 0.201172 148.835 0.966146 154.434 2.49609C160.065 3.99349 164.85 6.22331 168.789 9.18555C172.728 12.1478 175.755 15.8424 177.871 20.2695C179.987 24.6641 181.045 29.7422 181.045 35.5039ZM162.734 35.5039C162.734 32.9974 162.327 30.5072 161.514 28.0332C160.732 25.5267 159.316 23.2806 157.266 21.2949C155.247 19.3092 152.48 17.6979 148.965 16.4609C145.449 15.224 140.973 14.6055 135.537 14.6055C131.891 14.6055 128.685 14.8984 125.918 15.4844C123.151 16.0378 120.758 16.819 118.74 17.8281C116.722 18.8372 115.029 20.0254 113.662 21.3926C112.295 22.7272 111.204 24.1758 110.391 25.7383C109.577 27.2682 108.991 28.8796 108.633 30.5723C108.307 32.2324 108.145 33.8763 108.145 35.5039C108.145 37.1641 108.307 38.8405 108.633 40.5332C108.991 42.2259 109.577 43.8535 110.391 45.416C111.204 46.946 112.295 48.3783 113.662 49.7129C115.029 51.0475 116.722 52.2194 118.74 53.2285C120.758 54.2051 123.151 54.9863 125.918 55.5723C128.685 56.1257 131.891 56.4023 135.537 56.4023C140.973 56.4023 145.449 55.7839 148.965 54.5469C152.48 53.3099 155.247 51.6986 157.266 49.7129C159.316 47.7272 160.732 45.4974 161.514 43.0234C162.327 40.5169 162.734 38.0104 162.734 35.5039ZM189.033 43.5117V27.4961H229.072V43.5117H189.033ZM306.738 1.91016L323.877 48.4922L342.432 1.91016H361.23L334.277 69H314.16L296.631 23.8828L279.15 69H259.033L232.031 1.91016H250.879L269.043 47.5156L286.572 1.91016H306.738ZM442.119 65.6797C436.618 67.5026 431.117 68.8047 425.615 69.5859C420.146 70.3997 414.548 70.8066 408.818 70.8066C401.494 70.8066 394.967 70.0254 389.238 68.4629C383.542 66.8678 378.74 64.5729 374.834 61.5781C370.928 58.5833 367.949 54.9212 365.898 50.5918C363.848 46.2624 362.822 41.3633 362.822 35.8945C362.822 30.8164 363.848 26.1126 365.898 21.7832C367.982 17.4212 370.911 13.6452 374.688 10.4551C378.496 7.23242 383.086 4.72591 388.457 2.93555C393.828 1.11263 399.818 0.201172 406.426 0.201172C412.513 0.201172 418.079 1.03125 423.125 2.69141C428.203 4.31901 432.549 6.74414 436.162 9.9668C439.808 13.1895 442.624 17.1608 444.609 21.8809C446.628 26.6009 447.637 32.0371 447.637 38.1895V42.6816H381.523C382.109 44.7975 383.07 46.7344 384.404 48.4922C385.771 50.25 387.611 51.7474 389.922 52.9844C392.233 54.2214 395.065 55.1816 398.418 55.8652C401.803 56.5488 405.84 56.8906 410.527 56.8906C413.848 56.8906 417.103 56.6953 420.293 56.3047C423.483 55.8815 426.462 55.3444 429.229 54.6934C431.995 54.0098 434.486 53.2611 436.699 52.4473C438.945 51.6335 440.752 50.8197 442.119 50.0059V65.6797ZM429.619 29.4004C429.456 27.7402 428.952 26.0312 428.105 24.2734C427.292 22.4831 425.99 20.8717 424.199 19.4395C422.409 18.0072 420.065 16.8353 417.168 15.9238C414.271 14.9798 410.658 14.5078 406.328 14.5078C402.259 14.5078 398.743 15.0124 395.781 16.0215C392.819 17.0306 390.329 18.2839 388.311 19.7812C386.325 21.2786 384.779 22.89 383.672 24.6152C382.565 26.3405 381.849 27.9355 381.523 29.4004H429.619ZM535.605 50.4941C535.605 53.0983 535.264 55.3607 534.58 57.2812C533.896 59.2018 532.936 60.862 531.699 62.2617C530.495 63.6289 529.03 64.752 527.305 65.6309C525.612 66.4772 523.724 67.1608 521.641 67.6816C519.59 68.1699 517.393 68.5117 515.049 68.707C512.705 68.9023 510.28 69 507.773 69H459.092V1.91016H506.895C508.815 1.91016 510.736 1.99154 512.656 2.1543C514.609 2.31706 516.465 2.6263 518.223 3.08203C519.98 3.50521 521.608 4.10742 523.105 4.88867C524.635 5.66992 525.954 6.69531 527.061 7.96484C528.2 9.23438 529.079 10.7643 529.697 12.5547C530.348 14.3451 530.674 16.4609 530.674 18.9023C530.674 23.2643 529.6 26.7311 527.451 29.3027C525.303 31.8418 521.917 33.5345 517.295 34.3809C520.55 34.6087 523.333 35.1133 525.645 35.8945C527.988 36.6432 529.893 37.6849 531.357 39.0195C532.822 40.3216 533.896 41.9329 534.58 43.8535C535.264 45.7415 535.605 47.9551 535.605 50.4941ZM512.998 21.7832C512.998 20.9368 512.868 20.1393 512.607 19.3906C512.347 18.6094 511.875 17.9258 511.191 17.3398C510.508 16.7539 509.58 16.2819 508.408 15.9238C507.236 15.5658 505.739 15.3867 503.916 15.3867H477.207V27.9844H503.916C505.739 27.9844 507.236 27.8216 508.408 27.4961C509.58 27.1706 510.508 26.7311 511.191 26.1777C511.875 25.6243 512.347 24.9733 512.607 24.2246C512.868 23.4434 512.998 22.6296 512.998 21.7832ZM517.197 48.3945C517.197 46.8646 516.937 45.6439 516.416 44.7324C515.895 43.7884 515.081 43.0723 513.975 42.584C512.868 42.0632 511.436 41.7214 509.678 41.5586C507.92 41.3958 505.82 41.3145 503.379 41.3145H477.207V55.5234H503.379C505.82 55.5234 507.92 55.4421 509.678 55.2793C511.436 55.1165 512.868 54.7747 513.975 54.2539C515.081 53.7331 515.895 53.0169 516.416 52.1055C516.937 51.1615 517.197 49.9245 517.197 48.3945ZM591.055 33.209C594.408 33.9577 597.272 34.8691 599.648 35.9434C602.025 36.985 603.962 38.2057 605.459 39.6055C606.956 40.9727 608.047 42.5189 608.73 44.2441C609.414 45.9368 609.756 47.7923 609.756 49.8105C609.756 53.3262 608.796 56.4023 606.875 59.0391C604.987 61.6758 602.35 63.873 598.965 65.6309C595.612 67.3561 591.641 68.6419 587.051 69.4883C582.461 70.3672 577.497 70.8066 572.158 70.8066C568.577 70.8066 565.29 70.6439 562.295 70.3184C559.3 70.0254 556.533 69.6348 553.994 69.1465C551.488 68.6582 549.176 68.1211 547.061 67.5352C544.945 66.9167 542.975 66.2982 541.152 65.6797V49.6152C543.171 50.6895 545.433 51.6497 547.939 52.4961C550.479 53.3424 553.083 54.0749 555.752 54.6934C558.454 55.2793 561.172 55.735 563.906 56.0605C566.641 56.3535 569.229 56.5 571.67 56.5C576.097 56.5 579.629 56.2396 582.266 55.7188C584.902 55.1654 586.904 54.4818 588.271 53.668C589.639 52.8216 590.518 51.9264 590.908 50.9824C591.331 50.0384 591.543 49.1432 591.543 48.2969C591.543 46.8646 591.071 45.6276 590.127 44.5859C589.215 43.5443 587.588 42.6816 585.244 41.998C582.933 41.3145 579.792 40.8099 575.82 40.4844C571.849 40.1263 566.836 39.931 560.781 39.8984V26.6172C566.283 26.6172 570.84 26.5033 574.453 26.2754C578.099 26.0475 581.012 25.6895 583.193 25.2012C585.374 24.7129 586.904 24.0781 587.783 23.2969C588.695 22.5156 589.15 21.5553 589.15 20.416C589.15 20.0579 589.085 19.6673 588.955 19.2441C588.857 18.821 588.613 18.3815 588.223 17.9258C587.832 17.4701 587.262 17.0306 586.514 16.6074C585.765 16.1842 584.74 15.8099 583.438 15.4844C582.135 15.1589 580.524 14.8984 578.604 14.7031C576.683 14.5078 574.372 14.4102 571.67 14.4102C569.131 14.4102 566.543 14.5404 563.906 14.8008C561.302 15.0612 558.747 15.4518 556.24 15.9727C553.734 16.4935 551.309 17.1283 548.965 17.877C546.621 18.6257 544.456 19.5046 542.471 20.5137V4.49805C546.898 3.0332 551.634 1.95898 556.68 1.27539C561.725 0.559245 566.722 0.201172 571.67 0.201172C576.52 0.201172 581.094 0.526693 585.391 1.17773C589.72 1.82878 593.496 2.87044 596.719 4.30273C599.974 5.70247 602.546 7.54167 604.434 9.82031C606.322 12.0664 607.266 14.8008 607.266 18.0234C607.266 19.7487 606.956 21.3926 606.338 22.9551C605.752 24.485 604.808 25.901 603.506 27.2031C602.204 28.5052 600.527 29.6608 598.477 30.6699C596.426 31.679 593.952 32.5254 591.055 33.209ZM82.6758 125.406C82.6758 129.703 82.2038 133.528 81.2598 136.881C80.3158 140.201 78.9811 143.098 77.2559 145.572C75.5632 148.046 73.5124 150.146 71.1035 151.871C68.7272 153.596 66.0742 154.98 63.1445 156.021C60.2148 157.063 57.0573 157.828 53.6719 158.316C50.2865 158.772 46.7546 159 43.0762 159H0.498047V91.9102H42.9785C46.6569 91.9102 50.1888 92.1543 53.5742 92.6426C56.9596 93.0983 60.1172 93.847 63.0469 94.8887C66.0091 95.9303 68.6947 97.3138 71.1035 99.0391C73.5124 100.732 75.5632 102.831 77.2559 105.338C78.9811 107.812 80.3158 110.709 81.2598 114.029C82.2038 117.35 82.6758 121.142 82.6758 125.406ZM64.4141 125.406C64.4141 122.184 63.9909 119.384 63.1445 117.008C62.3307 114.632 60.9961 112.678 59.1406 111.148C57.3177 109.586 54.9251 108.43 51.9629 107.682C49.0007 106.9 45.3874 106.51 41.123 106.51H18.6133V144.4H41.123C45.3874 144.4 49.0007 144.026 51.9629 143.277C54.9251 142.496 57.3177 141.324 59.1406 139.762C60.9961 138.167 62.3307 136.181 63.1445 133.805C63.9909 131.428 64.4141 128.629 64.4141 125.406ZM181.045 125.504C181.045 131.266 179.987 136.36 177.871 140.787C175.755 145.182 172.728 148.86 168.789 151.822C164.85 154.785 160.065 157.031 154.434 158.561C148.835 160.058 142.536 160.807 135.537 160.807C128.538 160.807 122.207 160.058 116.543 158.561C110.911 157.031 106.11 154.785 102.139 151.822C98.1673 148.86 95.1074 145.182 92.959 140.787C90.8105 136.36 89.7363 131.266 89.7363 125.504C89.7363 119.742 90.8105 114.664 92.959 110.27C95.1074 105.842 98.1673 102.148 102.139 99.1855C106.11 96.2233 110.911 93.9935 116.543 92.4961C122.207 90.9661 128.538 90.2012 135.537 90.2012C142.536 90.2012 148.835 90.9661 154.434 92.4961C160.065 93.9935 164.85 96.2233 168.789 99.1855C172.728 102.148 175.755 105.842 177.871 110.27C179.987 114.664 181.045 119.742 181.045 125.504ZM162.734 125.504C162.734 122.997 162.327 120.507 161.514 118.033C160.732 115.527 159.316 113.281 157.266 111.295C155.247 109.309 152.48 107.698 148.965 106.461C145.449 105.224 140.973 104.605 135.537 104.605C131.891 104.605 128.685 104.898 125.918 105.484C123.151 106.038 120.758 106.819 118.74 107.828C116.722 108.837 115.029 110.025 113.662 111.393C112.295 112.727 111.204 114.176 110.391 115.738C109.577 117.268 108.991 118.88 108.633 120.572C108.307 122.232 108.145 123.876 108.145 125.504C108.145 127.164 108.307 128.84 108.633 130.533C108.991 132.226 109.577 133.854 110.391 135.416C111.204 136.946 112.295 138.378 113.662 139.713C115.029 141.048 116.722 142.219 118.74 143.229C120.758 144.205 123.151 144.986 125.918 145.572C128.685 146.126 131.891 146.402 135.537 146.402C140.973 146.402 145.449 145.784 148.965 144.547C152.48 143.31 155.247 141.699 157.266 139.713C159.316 137.727 160.732 135.497 161.514 133.023C162.327 130.517 162.734 128.01 162.734 125.504ZM189.033 133.512V117.496H229.072V133.512H189.033ZM318.066 140.494C318.066 143.098 317.725 145.361 317.041 147.281C316.357 149.202 315.397 150.862 314.16 152.262C312.956 153.629 311.491 154.752 309.766 155.631C308.073 156.477 306.185 157.161 304.102 157.682C302.051 158.17 299.854 158.512 297.51 158.707C295.166 158.902 292.741 159 290.234 159H241.553V91.9102H289.355C291.276 91.9102 293.197 91.9915 295.117 92.1543C297.07 92.3171 298.926 92.6263 300.684 93.082C302.441 93.5052 304.069 94.1074 305.566 94.8887C307.096 95.6699 308.415 96.6953 309.521 97.9648C310.661 99.2344 311.54 100.764 312.158 102.555C312.809 104.345 313.135 106.461 313.135 108.902C313.135 113.264 312.061 116.731 309.912 119.303C307.764 121.842 304.378 123.535 299.756 124.381C303.011 124.609 305.794 125.113 308.105 125.895C310.449 126.643 312.354 127.685 313.818 129.02C315.283 130.322 316.357 131.933 317.041 133.854C317.725 135.742 318.066 137.955 318.066 140.494ZM295.459 111.783C295.459 110.937 295.329 110.139 295.068 109.391C294.808 108.609 294.336 107.926 293.652 107.34C292.969 106.754 292.041 106.282 290.869 105.924C289.697 105.566 288.2 105.387 286.377 105.387H259.668V117.984H286.377C288.2 117.984 289.697 117.822 290.869 117.496C292.041 117.171 292.969 116.731 293.652 116.178C294.336 115.624 294.808 114.973 295.068 114.225C295.329 113.443 295.459 112.63 295.459 111.783ZM299.658 138.395C299.658 136.865 299.398 135.644 298.877 134.732C298.356 133.788 297.542 133.072 296.436 132.584C295.329 132.063 293.896 131.721 292.139 131.559C290.381 131.396 288.281 131.314 285.84 131.314H259.668V145.523H285.84C288.281 145.523 290.381 145.442 292.139 145.279C293.896 145.117 295.329 144.775 296.436 144.254C297.542 143.733 298.356 143.017 298.877 142.105C299.398 141.161 299.658 139.924 299.658 138.395ZM347.734 130.289C347.734 133.089 347.995 135.383 348.516 137.174C349.036 138.932 349.883 140.331 351.055 141.373C352.227 142.415 353.74 143.131 355.596 143.521C357.484 143.912 359.795 144.107 362.529 144.107H396.904V159H358.818C353.545 159 349.053 158.577 345.342 157.73C341.663 156.852 338.652 155.517 336.309 153.727C333.965 151.904 332.256 149.609 331.182 146.842C330.14 144.075 329.619 140.787 329.619 136.979V91.9102H347.734V130.289ZM493.271 125.504C493.271 131.266 492.214 136.36 490.098 140.787C487.982 145.182 484.954 148.86 481.016 151.822C477.077 154.785 472.292 157.031 466.66 158.561C461.061 160.058 454.762 160.807 447.764 160.807C440.765 160.807 434.434 160.058 428.77 158.561C423.138 157.031 418.337 154.785 414.365 151.822C410.394 148.86 407.334 145.182 405.186 140.787C403.037 136.36 401.963 131.266 401.963 125.504C401.963 119.742 403.037 114.664 405.186 110.27C407.334 105.842 410.394 102.148 414.365 99.1855C418.337 96.2233 423.138 93.9935 428.77 92.4961C434.434 90.9661 440.765 90.2012 447.764 90.2012C454.762 90.2012 461.061 90.9661 466.66 92.4961C472.292 93.9935 477.077 96.2233 481.016 99.1855C484.954 102.148 487.982 105.842 490.098 110.27C492.214 114.664 493.271 119.742 493.271 125.504ZM474.961 125.504C474.961 122.997 474.554 120.507 473.74 118.033C472.959 115.527 471.543 113.281 469.492 111.295C467.474 109.309 464.707 107.698 461.191 106.461C457.676 105.224 453.2 104.605 447.764 104.605C444.118 104.605 440.911 104.898 438.145 105.484C435.378 106.038 432.985 106.819 430.967 107.828C428.949 108.837 427.256 110.025 425.889 111.393C424.521 112.727 423.431 114.176 422.617 115.738C421.803 117.268 421.217 118.88 420.859 120.572C420.534 122.232 420.371 123.876 420.371 125.504C420.371 127.164 420.534 128.84 420.859 130.533C421.217 132.226 421.803 133.854 422.617 135.416C423.431 136.946 424.521 138.378 425.889 139.713C427.256 141.048 428.949 142.219 430.967 143.229C432.985 144.205 435.378 144.986 438.145 145.572C440.911 146.126 444.118 146.402 447.764 146.402C453.2 146.402 457.676 145.784 461.191 144.547C464.707 143.31 467.474 141.699 469.492 139.713C471.543 137.727 472.959 135.497 473.74 133.023C474.554 130.517 474.961 128.01 474.961 125.504ZM578.701 154.41C576.357 155.387 573.997 156.266 571.621 157.047C569.245 157.828 566.787 158.495 564.248 159.049C561.709 159.635 559.023 160.074 556.191 160.367C553.392 160.66 550.381 160.807 547.158 160.807C540.322 160.807 534.023 160.074 528.262 158.609C522.533 157.145 517.585 154.947 513.418 152.018C509.284 149.055 506.061 145.377 503.75 140.982C501.439 136.555 500.283 131.396 500.283 125.504C500.283 119.612 501.439 114.469 503.75 110.074C506.061 105.647 509.284 101.969 513.418 99.0391C517.585 96.0768 522.533 93.8633 528.262 92.3984C534.023 90.9336 540.322 90.2012 547.158 90.2012C550.381 90.2012 553.392 90.3477 556.191 90.6406C559.023 90.9336 561.709 91.373 564.248 91.959C566.787 92.5124 569.245 93.1797 571.621 93.9609C573.997 94.7422 576.357 95.6211 578.701 96.5977V112.906C576.846 111.897 574.893 110.904 572.842 109.928C570.791 108.919 568.529 108.023 566.055 107.242C563.581 106.428 560.863 105.777 557.9 105.289C554.938 104.768 551.602 104.508 547.891 104.508C542.194 104.508 537.458 105.094 533.682 106.266C529.938 107.438 526.943 109 524.697 110.953C522.451 112.906 520.872 115.152 519.961 117.691C519.049 120.198 518.594 122.802 518.594 125.504C518.594 127.294 518.789 129.068 519.18 130.826C519.57 132.551 520.221 134.195 521.133 135.758C522.044 137.288 523.232 138.704 524.697 140.006C526.162 141.308 527.985 142.431 530.166 143.375C532.347 144.319 534.886 145.068 537.783 145.621C540.713 146.142 544.082 146.402 547.891 146.402C551.602 146.402 554.938 146.174 557.9 145.719C560.863 145.23 563.581 144.596 566.055 143.814C568.529 143.033 570.791 142.154 572.842 141.178C574.893 140.169 576.846 139.143 578.701 138.102V154.41ZM654.316 159C653.991 155.354 653.112 152.164 651.68 149.43C650.247 146.663 648.441 144.286 646.26 142.301C644.111 140.315 641.67 138.671 638.936 137.369C636.234 136.067 633.451 135.042 630.586 134.293C627.721 133.512 624.857 132.975 621.992 132.682C619.16 132.356 616.523 132.193 614.082 132.193H608.711V159H590.596V91.9102H608.711V117.789H612.422C614.928 117.789 617.549 117.594 620.283 117.203C623.018 116.812 625.719 116.194 628.389 115.348C631.09 114.501 633.678 113.411 636.152 112.076C638.626 110.742 640.84 109.114 642.793 107.193C644.746 105.273 646.374 103.059 647.676 100.553C648.978 98.0137 649.792 95.1328 650.117 91.9102H668.574C668.249 95.4583 667.533 98.6647 666.426 101.529C665.352 104.394 664.001 106.965 662.373 109.244C660.778 111.49 658.988 113.46 657.002 115.152C655.016 116.845 652.982 118.31 650.898 119.547C648.815 120.751 646.732 121.76 644.648 122.574C642.598 123.355 640.677 123.958 638.887 124.381C641.165 124.739 643.525 125.309 645.967 126.09C648.441 126.839 650.882 127.848 653.291 129.117C655.7 130.354 657.995 131.884 660.176 133.707C662.389 135.53 664.375 137.662 666.133 140.104C667.891 142.545 669.355 145.328 670.527 148.453C671.699 151.578 672.448 155.094 672.773 159H654.316ZM757.275 154.41C754.932 155.387 752.572 156.266 750.195 157.047C747.819 157.828 745.361 158.495 742.822 159.049C740.283 159.635 737.598 160.074 734.766 160.367C731.966 160.66 728.955 160.807 725.732 160.807C718.896 160.807 712.598 160.074 706.836 158.609C701.107 157.145 696.159 154.947 691.992 152.018C687.858 149.055 684.635 145.377 682.324 140.982C680.013 136.555 678.857 131.396 678.857 125.504C678.857 119.612 680.013 114.469 682.324 110.074C684.635 105.647 687.858 101.969 691.992 99.0391C696.159 96.0768 701.107 93.8633 706.836 92.3984C712.598 90.9336 718.896 90.2012 725.732 90.2012C728.955 90.2012 731.966 90.3477 734.766 90.6406C737.598 90.9336 740.283 91.373 742.822 91.959C745.361 92.5124 747.819 93.1797 750.195 93.9609C752.572 94.7422 754.932 95.6211 757.275 96.5977V112.906C755.42 111.897 753.467 110.904 751.416 109.928C749.365 108.919 747.103 108.023 744.629 107.242C742.155 106.428 739.437 105.777 736.475 105.289C733.512 104.768 730.176 104.508 726.465 104.508C720.768 104.508 716.032 105.094 712.256 106.266C708.512 107.438 705.518 109 703.271 110.953C701.025 112.906 699.447 115.152 698.535 117.691C697.624 120.198 697.168 122.802 697.168 125.504C697.168 127.294 697.363 129.068 697.754 130.826C698.145 132.551 698.796 134.195 699.707 135.758C700.618 137.288 701.807 138.704 703.271 140.006C704.736 141.308 706.559 142.431 708.74 143.375C710.921 144.319 713.46 145.068 716.357 145.621C719.287 146.142 722.656 146.402 726.465 146.402C730.176 146.402 733.512 146.174 736.475 145.719C739.437 145.23 742.155 144.596 744.629 143.814C747.103 143.033 749.365 142.154 751.416 141.178C753.467 140.169 755.42 139.143 757.275 138.102V154.41ZM833.379 159V131.021H787.285V159H769.17V91.9102H787.285V116.324H833.379V91.9102H851.494V159H833.379ZM924.375 159V152.408C922.064 153.678 919.574 154.801 916.904 155.777C914.268 156.754 911.517 157.584 908.652 158.268C905.788 158.951 902.826 159.456 899.766 159.781C896.738 160.139 893.678 160.318 890.586 160.318C886.973 160.318 883.473 159.977 880.088 159.293C876.735 158.609 873.757 157.503 871.152 155.973C868.548 154.443 866.449 152.441 864.854 149.967C863.291 147.493 862.51 144.465 862.51 140.885C862.51 136.36 863.747 132.6 866.221 129.605C868.695 126.578 872.471 124.104 877.549 122.184C882.627 120.263 889.04 118.782 896.787 117.74C904.567 116.699 913.763 115.885 924.375 115.299V113.883C924.375 112.776 924.082 111.686 923.496 110.611C922.91 109.505 921.836 108.544 920.273 107.73C918.743 106.884 916.628 106.201 913.926 105.68C911.257 105.159 907.839 104.898 903.672 104.898C900.384 104.898 897.129 105.077 893.906 105.436C890.716 105.761 887.624 106.217 884.629 106.803C881.667 107.389 878.851 108.072 876.182 108.854C873.512 109.635 871.087 110.449 868.906 111.295V95.1816C871.185 94.5957 873.74 94.026 876.572 93.4727C879.404 92.9193 882.35 92.4473 885.41 92.0566C888.47 91.6335 891.562 91.3079 894.688 91.0801C897.812 90.8197 900.807 90.6895 903.672 90.6895C909.303 90.6895 914.495 91.1615 919.248 92.1055C924.001 93.0169 928.086 94.4492 931.504 96.4023C934.954 98.3555 937.64 100.829 939.561 103.824C941.514 106.819 942.49 110.383 942.49 114.518V159H924.375ZM924.375 128.385C917.409 128.645 911.484 129.02 906.602 129.508C901.751 129.996 897.715 130.566 894.492 131.217C891.27 131.868 888.73 132.568 886.875 133.316C885.052 134.065 883.685 134.83 882.773 135.611C881.862 136.393 881.292 137.174 881.064 137.955C880.869 138.736 880.771 139.452 880.771 140.104C880.771 140.885 880.983 141.65 881.406 142.398C881.829 143.115 882.562 143.749 883.604 144.303C884.678 144.856 886.094 145.296 887.852 145.621C889.609 145.947 891.823 146.109 894.492 146.109C897.454 146.109 900.352 145.882 903.184 145.426C906.016 144.97 908.701 144.352 911.24 143.57C913.779 142.757 916.156 141.812 918.369 140.738C920.615 139.632 922.617 138.46 924.375 137.223V128.385ZM958.193 159V91.9102H976.309V159H958.193ZM1056.27 159V121.402C1056.27 118.896 1056.06 116.633 1055.63 114.615C1055.21 112.564 1054.41 110.823 1053.24 109.391C1052.1 107.926 1050.49 106.803 1048.41 106.021C1046.36 105.208 1043.7 104.801 1040.45 104.801C1037.98 104.801 1035.37 105.143 1032.64 105.826C1029.93 106.477 1027.25 107.356 1024.58 108.463C1021.91 109.57 1019.36 110.855 1016.91 112.32C1014.51 113.785 1012.36 115.315 1010.47 116.91V159H992.354V91.9102H1010.47V101.09C1012.75 99.7878 1015.17 98.502 1017.74 97.2324C1020.32 95.9303 1023.05 94.7585 1025.95 93.7168C1028.84 92.6751 1031.92 91.8288 1035.18 91.1777C1038.43 90.5267 1041.87 90.2012 1045.48 90.2012C1050 90.2012 1054.04 90.7546 1057.59 91.8613C1061.17 92.9355 1064.2 94.4818 1066.67 96.5C1069.14 98.4857 1071.03 100.911 1072.33 103.775C1073.67 106.607 1074.34 109.781 1074.34 113.297V159H1056.27ZM82.6758 215.406C82.6758 219.703 82.2038 223.528 81.2598 226.881C80.3158 230.201 78.9811 233.098 77.2559 235.572C75.5632 238.046 73.5124 240.146 71.1035 241.871C68.7272 243.596 66.0742 244.98 63.1445 246.021C60.2148 247.063 57.0573 247.828 53.6719 248.316C50.2865 248.772 46.7546 249 43.0762 249H0.498047V181.91H42.9785C46.6569 181.91 50.1888 182.154 53.5742 182.643C56.9596 183.098 60.1172 183.847 63.0469 184.889C66.0091 185.93 68.6947 187.314 71.1035 189.039C73.5124 190.732 75.5632 192.831 77.2559 195.338C78.9811 197.812 80.3158 200.709 81.2598 204.029C82.2038 207.35 82.6758 211.142 82.6758 215.406ZM64.4141 215.406C64.4141 212.184 63.9909 209.384 63.1445 207.008C62.3307 204.632 60.9961 202.678 59.1406 201.148C57.3177 199.586 54.9251 198.43 51.9629 197.682C49.0007 196.9 45.3874 196.51 41.123 196.51H18.6133V234.4H41.123C45.3874 234.4 49.0007 234.026 51.9629 233.277C54.9251 232.496 57.3177 231.324 59.1406 229.762C60.9961 228.167 62.3307 226.181 63.1445 223.805C63.9909 221.428 64.4141 218.629 64.4141 215.406ZM181.045 215.504C181.045 221.266 179.987 226.36 177.871 230.787C175.755 235.182 172.728 238.86 168.789 241.822C164.85 244.785 160.065 247.031 154.434 248.561C148.835 250.058 142.536 250.807 135.537 250.807C128.538 250.807 122.207 250.058 116.543 248.561C110.911 247.031 106.11 244.785 102.139 241.822C98.1673 238.86 95.1074 235.182 92.959 230.787C90.8105 226.36 89.7363 221.266 89.7363 215.504C89.7363 209.742 90.8105 204.664 92.959 200.27C95.1074 195.842 98.1673 192.148 102.139 189.186C106.11 186.223 110.911 183.993 116.543 182.496C122.207 180.966 128.538 180.201 135.537 180.201C142.536 180.201 148.835 180.966 154.434 182.496C160.065 183.993 164.85 186.223 168.789 189.186C172.728 192.148 175.755 195.842 177.871 200.27C179.987 204.664 181.045 209.742 181.045 215.504ZM162.734 215.504C162.734 212.997 162.327 210.507 161.514 208.033C160.732 205.527 159.316 203.281 157.266 201.295C155.247 199.309 152.48 197.698 148.965 196.461C145.449 195.224 140.973 194.605 135.537 194.605C131.891 194.605 128.685 194.898 125.918 195.484C123.151 196.038 120.758 196.819 118.74 197.828C116.722 198.837 115.029 200.025 113.662 201.393C112.295 202.727 111.204 204.176 110.391 205.738C109.577 207.268 108.991 208.88 108.633 210.572C108.307 212.232 108.145 213.876 108.145 215.504C108.145 217.164 108.307 218.84 108.633 220.533C108.991 222.226 109.577 223.854 110.391 225.416C111.204 226.946 112.295 228.378 113.662 229.713C115.029 231.048 116.722 232.219 118.74 233.229C120.758 234.205 123.151 234.986 125.918 235.572C128.685 236.126 131.891 236.402 135.537 236.402C140.973 236.402 145.449 235.784 148.965 234.547C152.48 233.31 155.247 231.699 157.266 229.713C159.316 227.727 160.732 225.497 161.514 223.023C162.327 220.517 162.734 218.01 162.734 215.504ZM189.033 223.512V207.496H229.072V223.512H189.033ZM304.932 249L259.668 202.906V249H241.553V181.91H261.23L306.543 228.199V181.91H324.561V249H304.932ZM358.672 196.217V207.887H402.275V222.193H358.672V249H340.557V181.91H404.668V196.217H358.672ZM452.744 196.51V249H434.629V196.51H406.162V181.91H481.26V196.51H452.744ZM550.088 200.807C548.818 200.188 547.142 199.488 545.059 198.707C542.975 197.926 540.615 197.193 537.979 196.51C535.342 195.794 532.477 195.208 529.385 194.752C526.292 194.264 523.118 194.02 519.863 194.02C517.259 194.02 515.029 194.101 513.174 194.264C511.351 194.426 509.805 194.638 508.535 194.898C507.298 195.159 506.305 195.468 505.557 195.826C504.84 196.152 504.287 196.493 503.896 196.852C503.506 197.21 503.245 197.568 503.115 197.926C503.018 198.284 502.969 198.609 502.969 198.902C502.969 199.879 503.457 200.742 504.434 201.49C505.41 202.206 506.745 202.857 508.438 203.443C510.13 203.997 512.1 204.534 514.346 205.055C516.592 205.543 518.968 206.064 521.475 206.617C524.014 207.138 526.618 207.724 529.287 208.375C531.989 208.993 534.593 209.726 537.1 210.572C539.639 211.419 542.031 212.411 544.277 213.551C546.523 214.658 548.493 215.96 550.186 217.457C551.878 218.954 553.213 220.68 554.189 222.633C555.166 224.586 555.654 226.816 555.654 229.322C555.654 232.545 555.085 235.312 553.945 237.623C552.806 239.934 551.276 241.887 549.355 243.482C547.467 245.077 545.27 246.363 542.764 247.34C540.257 248.284 537.62 249.016 534.854 249.537C532.119 250.058 529.336 250.4 526.504 250.562C523.704 250.725 521.035 250.807 518.496 250.807C511.855 250.807 505.703 250.253 500.039 249.146C494.408 248.072 489.427 246.721 485.098 245.094V229.078C489.557 231.552 494.635 233.489 500.332 234.889C506.061 236.288 512.181 236.988 518.691 236.988C522.533 236.988 525.658 236.793 528.066 236.402C530.508 235.979 532.412 235.458 533.779 234.84C535.146 234.189 536.074 233.489 536.562 232.74C537.051 231.992 537.295 231.275 537.295 230.592C537.295 229.518 536.807 228.59 535.83 227.809C534.854 226.995 533.519 226.295 531.826 225.709C530.133 225.09 528.164 224.537 525.918 224.049C523.672 223.528 521.279 223.023 518.74 222.535C516.234 222.014 513.646 221.461 510.977 220.875C508.307 220.289 505.703 219.605 503.164 218.824C500.658 218.01 498.281 217.083 496.035 216.041C493.789 214.967 491.82 213.714 490.127 212.281C488.434 210.816 487.1 209.14 486.123 207.252C485.146 205.331 484.658 203.118 484.658 200.611C484.658 197.649 485.179 195.094 486.221 192.945C487.262 190.797 488.662 188.974 490.42 187.477C492.21 185.947 494.261 184.71 496.572 183.766C498.916 182.822 501.374 182.089 503.945 181.568C506.517 181.048 509.121 180.689 511.758 180.494C514.395 180.299 516.901 180.201 519.277 180.201C521.882 180.201 524.551 180.331 527.285 180.592C530.052 180.852 532.77 181.227 535.439 181.715C538.109 182.171 540.68 182.708 543.154 183.326C545.661 183.945 547.972 184.596 550.088 185.279V200.807ZM562.324 249V231.422H580.83V249H562.324Z" fill="#202020"/>
</svg>
