<svg width="78" height="52" viewBox="0 0 78 52" fill="none" xmlns="http://www.w3.org/2000/svg">
<path fill-rule="evenodd" clip-rule="evenodd" d="M0 0H26.2306C32.1686 0 37.0111 4.95237 37.0111 11.0249C37.0111 17.0975 32.1686 22.0499 26.2306 22.0499H0V6.30838H3.05544V18.9251H26.173C30.4391 18.9251 33.8981 15.3877 33.8981 11.0249C33.8981 6.66212 30.4391 3.12471 26.173 3.12471H0V0Z" fill="white"/>
<path fill-rule="evenodd" clip-rule="evenodd" d="M37.0111 29.9502H29.8049C27.7295 29.9502 25.7118 30.8345 24.2705 32.3674L18.5056 38.4989L12.6829 32.3674C11.2417 30.8345 9.22396 29.9502 7.14857 29.9502H0V33.0749H7.14857C8.41686 33.0749 9.62751 33.6055 10.4923 34.4899L24.7317 49.5828C26.173 51.1157 28.1907 52 30.2661 52H36.9535V48.8753H30.2661C28.9978 48.8753 27.7872 48.3447 26.9224 47.4604L20.581 40.7983L26.5189 34.5488C27.3836 33.6055 28.5943 33.1339 29.8626 33.1339H37.0111V29.9502ZM10.0311 47.4014L14.3548 42.8617L16.4878 45.1021L12.2794 49.5828C10.8382 51.1157 8.82041 52 6.74502 52H0V48.8753H6.68737C7.95567 48.8753 9.16631 48.3447 10.0311 47.4014Z" fill="white"/>
<path fill-rule="evenodd" clip-rule="evenodd" d="M41.1042 9.43309H44.2173C44.9091 5.83673 48.0222 3.12471 51.7695 3.12471H67.1619C70.9092 3.12471 74.0223 5.83673 74.7141 9.43309H77.8272C77.1354 4.12698 72.6387 0 67.1619 0H51.7695C46.3504 0 41.8537 4.12698 41.1042 9.43309ZM77.8848 12.6168H74.7717C74.0799 16.2131 70.9668 18.9251 67.2196 18.9251H51.7695C48.0222 18.9251 44.9091 16.2131 44.2173 12.6168H41.1042C41.8537 17.9818 46.3504 22.0499 51.7695 22.0499H67.1619C72.6387 22.0499 77.1354 17.9818 77.8848 12.6168Z" fill="white"/>
<path fill-rule="evenodd" clip-rule="evenodd" d="M67.9691 47.4014L62.0312 41.152L61.6276 40.7393L59.4946 38.4989L58.9181 37.8504L53.7296 32.3674C52.2884 30.8345 50.2706 29.9502 48.1952 29.9502H40.989V33.0749H48.1376C49.4059 33.0749 50.6165 33.6055 51.4813 34.5488L57.3615 40.7393L55.3438 42.8617L51.0201 47.4014C50.1553 48.3447 48.9447 48.8164 47.6764 48.8164H40.989V51.9411H47.6764C49.7518 51.9411 51.7695 51.0567 53.2108 49.5239L56.785 45.7506L59.4946 42.8617L65.7208 49.5828C67.162 51.1157 69.1797 52 71.2551 52H77.9425V48.8753H71.2551C69.9868 48.8753 68.8338 48.3447 67.9691 47.4014Z" fill="white"/>
<path fill-rule="evenodd" clip-rule="evenodd" d="M70.7938 29.9502C68.7184 29.9502 66.7007 30.8345 65.2594 32.3674L61.5122 36.3765L63.6453 38.6168L67.5078 34.5488C68.3725 33.6055 69.5832 33.0749 70.8515 33.0749H78V29.9502H70.7938Z" fill="white"/>
<path d="M44.967 23.8186H32.9758V26.9433H44.967V23.8186Z" fill="white"/>
</svg>
