<svg width="78" height="52" viewBox="0 0 78 52" fill="none" xmlns="http://www.w3.org/2000/svg">
<path fill-rule="evenodd" clip-rule="evenodd" d="M0 0H26.2306C32.1686 0 37.0111 4.95237 37.0111 11.0249C37.0111 17.0975 32.1686 22.0499 26.2306 22.0499H0V6.30838H3.05544V18.9251H26.173C30.4391 18.9251 33.8981 15.3877 33.8981 11.0249C33.8981 6.66212 30.4391 3.12471 26.173 3.12471H0V0Z" fill="#202020"/>
<path fill-rule="evenodd" clip-rule="evenodd" d="M37.0111 29.9501H29.8049C27.7295 29.9501 25.7118 30.8344 24.2705 32.3673L18.5056 38.4988L12.6829 32.3673C11.2417 30.8344 9.22396 29.9501 7.14857 29.9501H0V33.0748H7.14857C8.41686 33.0748 9.62751 33.6054 10.4923 34.4897L24.7317 49.5827C26.173 51.1156 28.1907 51.9999 30.2661 51.9999H36.9535V48.8752H30.2661C28.9978 48.8752 27.7872 48.3446 26.9224 47.4603L20.581 40.7981L26.5189 34.5487C27.3836 33.6054 28.5943 33.1337 29.8626 33.1337H37.0111V29.9501ZM10.0311 47.4013L14.3548 42.8616L16.4878 45.102L12.2794 49.5827C10.8382 51.1156 8.82041 51.9999 6.74502 51.9999H0V48.8752H6.68737C7.95567 48.8752 9.16631 48.3446 10.0311 47.4013Z" fill="#202020"/>
<path fill-rule="evenodd" clip-rule="evenodd" d="M41.1045 9.43309H44.2176C44.9094 5.83673 48.0225 3.12471 51.7697 3.12471H67.1622C70.9094 3.12471 74.0225 5.83673 74.7143 9.43309H77.8274C77.1356 4.12698 72.6389 0 67.1622 0H51.7697C46.3506 0 41.8539 4.12698 41.1045 9.43309ZM77.885 12.6168H74.772C74.0802 16.2131 70.9671 18.9251 67.2198 18.9251H51.7697C48.0225 18.9251 44.9094 16.2131 44.2176 12.6168H41.1045C41.8539 17.9818 46.3506 22.0499 51.7697 22.0499H67.1622C72.6389 22.0499 77.1356 17.9818 77.885 12.6168Z" fill="#202020"/>
<path fill-rule="evenodd" clip-rule="evenodd" d="M67.9689 47.4014L62.0309 41.152L61.6274 40.7393L59.4943 38.4989L58.9178 37.8504L53.7294 32.3674C52.2881 30.8345 50.2704 29.9502 48.195 29.9502H40.9888V33.0749H48.1373C49.4056 33.0749 50.6163 33.6055 51.481 34.5488L57.3613 40.7393L55.3436 42.8617L51.0198 47.4014C50.1551 48.3447 48.9444 48.8164 47.6761 48.8164H40.9888V51.9411H47.6761C49.7515 51.9411 51.7693 51.0567 53.2105 49.5239L56.7848 45.7506L59.4943 42.8617L65.7205 49.5828C67.1618 51.1157 69.1795 52 71.2549 52H77.9423V48.8753H71.2549C69.9866 48.8753 68.8336 48.3447 67.9689 47.4014Z" fill="#202020"/>
<path fill-rule="evenodd" clip-rule="evenodd" d="M70.7938 29.9503C68.7184 29.9503 66.7007 30.8347 65.2594 32.3675L61.5122 36.3766L63.6453 38.617L67.5078 34.5489C68.3725 33.6056 69.5832 33.075 70.8515 33.075H78V29.9503H70.7938Z" fill="#202020"/>
<path d="M44.9667 23.8185H32.9756V26.9432H44.9667V23.8185Z" fill="#202020"/>
</svg>
