<svg width="472" height="88" viewBox="0 0 472 88" fill="none" xmlns="http://www.w3.org/2000/svg">
<path fill-rule="evenodd" clip-rule="evenodd" d="M0.164642 0H75.0838C92.0436 0 105.875 13.8696 105.875 30.8763C105.875 47.8831 92.0436 61.7527 75.0838 61.7527H0.164642V17.6672H8.8915V53.0016H74.9192C87.1038 53.0016 96.9833 43.0948 96.9833 30.8763C96.9833 18.6579 87.1038 8.75105 74.9192 8.75105H0V0H0.164642Z" fill="white"/>
<path fill-rule="evenodd" clip-rule="evenodd" d="M354.343 0H333.926C327.998 0 322.235 2.47671 318.119 6.76968L301.653 23.9415L285.187 6.76968C281.071 2.47671 275.308 0 269.38 0H248.962V8.75105H269.38C273.003 8.75105 276.46 10.2371 278.93 12.7138L319.271 55.1481C323.388 59.4411 329.151 61.9178 335.078 61.9178H354.179V53.1667H335.078C331.456 53.1667 327.998 51.6807 325.528 49.204L307.416 30.5461L324.211 13.2091C326.681 10.5673 330.139 9.24639 333.761 9.24639H354.179V0H354.343ZM277.284 49.0389L289.633 36.3251L295.725 42.5994L283.705 55.1481C279.589 59.4411 273.826 61.9178 267.898 61.9178H248.798V53.1667H267.898C271.356 53.0016 274.814 51.5156 277.284 49.0389Z" fill="white"/>
<path fill-rule="evenodd" clip-rule="evenodd" d="M117.565 26.5834H126.457C128.433 16.5114 137.324 8.91615 148.027 8.91615H191.991C202.693 8.91615 211.585 16.5114 213.561 26.5834H222.452C220.312 11.558 207.468 0.1651 191.991 0.1651H148.027C132.549 -1.40667e-05 119.706 11.558 117.565 26.5834ZM222.617 35.3344H213.725C211.75 45.4064 202.858 53.0016 192.155 53.0016H148.027C137.324 53.0016 128.433 45.4064 126.457 35.3344H117.565C119.706 50.3598 132.549 61.7527 148.027 61.7527H191.991C207.633 61.9178 220.476 50.3598 222.617 35.3344Z" fill="white"/>
<path fill-rule="evenodd" clip-rule="evenodd" d="M442.6 49.0389L425.64 31.5368L424.487 30.381L418.395 24.1066L416.748 22.2904L401.929 6.93479C397.813 2.64182 392.05 0.165108 386.122 0.165108H365.705V8.91615H386.122C389.745 8.91615 393.202 10.4022 395.672 13.044L412.467 30.381L406.704 36.3251L394.355 49.0389C391.885 51.6807 388.427 53.0016 384.805 53.0016H365.705V61.9178H384.805C390.732 61.9178 396.496 59.4411 400.612 55.1481L410.821 44.5808L418.56 36.4902L436.507 54.983C440.624 59.2759 446.387 61.7527 452.314 61.7527H471.415V53.0016H452.314C448.527 53.0016 445.234 51.5156 442.6 49.0389Z" fill="white"/>
<path fill-rule="evenodd" clip-rule="evenodd" d="M450.833 0C444.905 0 439.142 2.47671 435.025 6.76968L424.323 17.9974L430.415 24.2718L441.447 12.8789C443.917 10.2371 447.375 8.75105 450.997 8.75105H471.415V0H450.833Z" fill="white"/>
<path d="M265.098 26.5834H230.85V35.3344H265.098V26.5834Z" fill="white"/>
<path d="M273.002 79.9152C272.673 79.585 272.179 79.2548 271.685 79.0896C271.191 78.9245 270.697 78.7594 270.038 78.7594H252.749C252.42 78.7594 252.091 78.5943 251.926 78.4292C251.761 78.2641 251.597 77.9338 251.597 77.6036C251.597 77.2734 251.761 76.9432 251.926 76.778C252.091 76.6129 252.42 76.4478 252.749 76.4478H271.685C272.179 76.4478 272.508 76.2827 272.673 75.9525C273.002 75.6222 273.167 75.292 273.167 74.9618C273.167 74.4664 273.002 74.1362 272.673 73.9711C272.343 73.6409 272.014 73.4758 271.685 73.4758H252.749C252.091 73.4758 251.597 73.6409 251.103 73.806C250.609 73.9711 250.115 74.3013 249.785 74.6316C249.456 74.9618 249.127 75.4571 248.962 75.9525C248.797 76.4478 248.633 76.9432 248.633 77.6036C248.633 78.2641 248.797 78.7594 248.962 79.2548C249.127 79.7501 249.456 80.2454 249.785 80.5757C250.115 80.9059 250.609 81.2361 251.103 81.4012C251.597 81.5664 252.091 81.7315 252.749 81.7315H270.038C270.368 81.7315 270.697 81.8966 270.862 82.0617C271.026 82.2268 271.191 82.557 271.191 82.8873C271.191 83.2175 271.026 83.5477 270.862 83.7128C270.697 83.8779 270.368 84.0431 270.038 84.0431H250.938C250.444 84.0431 250.115 84.2082 249.95 84.5384C249.621 84.8686 249.456 85.1989 249.456 85.5291C249.456 86.0244 249.621 86.3547 249.95 86.5198C250.279 86.85 250.609 87.0151 250.938 87.0151H269.874C270.532 87.0151 271.026 86.85 271.52 86.6849C272.014 86.5198 272.508 86.1895 272.837 85.8593C273.167 85.5291 273.496 85.0337 273.661 84.5384C273.825 84.0431 273.99 83.5477 273.99 82.8873C273.99 82.2268 273.825 81.7315 273.661 81.2361C273.825 80.7408 273.496 80.2454 273.002 79.9152Z" fill="white"/>
<path d="M360.106 73.4758C359.612 73.4758 359.283 73.6409 359.118 73.9711C358.789 74.3013 358.624 74.6316 358.624 74.9618V80.2454C358.624 80.5757 358.624 81.071 358.459 81.4012C358.295 81.8966 358.13 82.2268 357.965 82.557C357.636 82.8873 357.307 83.2175 356.813 83.5477C356.319 83.8779 355.825 83.878 355.001 83.878H342.652C341.994 83.878 341.335 83.7128 340.841 83.5477C340.347 83.2175 340.018 82.8873 339.853 82.557C339.524 82.2268 339.359 81.7315 339.359 81.4012C339.194 80.9059 339.194 80.5757 339.194 80.2454V74.9618C339.194 74.4664 339.03 74.1362 338.7 73.9711C338.371 73.6409 338.042 73.4758 337.712 73.4758C337.218 73.4758 336.889 73.6409 336.724 73.9711C336.395 74.3013 336.23 74.6316 336.23 74.9618V80.2454C336.23 81.071 336.395 81.7315 336.56 82.557C336.889 83.3826 337.218 84.0431 337.712 84.7035C338.206 85.364 338.7 85.8593 339.359 86.3547C340.018 86.85 340.841 87.0151 341.664 87.0151H355.825C356.648 87.0151 357.471 86.85 358.295 86.3547C358.953 85.8593 359.612 85.364 360.106 84.7035C360.6 84.0431 360.929 83.3826 361.258 82.557C361.588 81.7315 361.588 80.9059 361.588 80.2454V74.9618C361.588 74.4664 361.423 74.1362 361.094 73.9711C360.764 73.6409 360.435 73.4758 360.106 73.4758Z" fill="white"/>
<path d="M404.234 75.6222C403.74 74.9618 403.082 74.4665 402.423 73.9711C401.764 73.4758 400.941 73.3106 399.953 73.3106H381.841C381.347 73.3106 381.017 73.4758 380.853 73.806C380.524 74.1362 380.359 74.4665 380.359 74.7967V85.364C380.359 85.8593 380.524 86.1896 380.853 86.3547C381.182 86.6849 381.511 86.85 381.841 86.85H400.282C401.106 86.85 401.929 86.5198 402.588 86.1895C403.246 85.6942 403.74 85.1989 404.234 84.5384C404.728 83.8779 405.057 83.2175 405.387 82.3919C405.716 81.5664 405.716 80.7408 405.716 80.0803C405.716 79.2548 405.551 78.4292 405.387 77.7687C405.057 77.1083 404.728 76.2827 404.234 75.6222ZM402.588 81.4012C402.423 81.8966 402.258 82.2268 402.094 82.557C401.764 82.8873 401.435 83.2175 400.941 83.5477C400.447 83.8779 399.953 83.878 399.13 83.878H383.158V76.2827H399.13C399.788 76.2827 400.447 76.4478 400.941 76.6129C401.435 76.9432 401.764 77.2734 402.094 77.6036C402.423 77.9338 402.588 78.4292 402.588 78.7594C402.752 79.2547 402.752 79.585 402.752 79.9152C402.752 80.2454 402.752 81.071 402.588 81.4012Z" fill="white"/>
<path d="M425.969 73.4758C425.475 73.4758 425.145 73.6409 424.981 73.9711C424.652 74.3013 424.487 74.6316 424.487 74.9618V85.5291C424.487 86.0244 424.652 86.3547 424.981 86.5198C425.31 86.85 425.639 87.0151 425.969 87.0151C426.463 87.0151 426.792 86.85 426.957 86.5198C427.286 86.1895 427.451 85.8593 427.451 85.5291V74.9618C427.451 74.4664 427.286 74.1362 426.957 73.9711C426.627 73.6409 426.298 73.4758 425.969 73.4758Z" fill="white"/>
<path d="M471.085 77.9338C470.756 77.1083 470.426 76.4478 469.932 75.7874C469.438 75.1269 468.945 74.6316 468.286 74.1362C467.627 73.6409 466.804 73.4758 465.981 73.4758H451.82C450.997 73.4758 450.174 73.6409 449.35 74.1362C448.692 74.6316 448.033 75.1269 447.539 75.7874C447.045 76.4478 446.716 77.1083 446.386 77.9338C446.057 78.7594 446.057 79.585 446.057 80.2454C446.057 81.071 446.222 81.7315 446.386 82.557C446.716 83.3826 447.045 84.0431 447.539 84.7035C448.033 85.364 448.527 85.8593 449.186 86.3547C449.844 86.85 450.668 87.0151 451.491 87.0151H465.651C466.475 87.0151 467.298 86.85 468.121 86.3547C468.78 85.8593 469.438 85.364 469.932 84.7035C470.426 84.0431 470.756 83.3826 471.085 82.557C471.414 81.7315 471.414 80.9059 471.414 80.2454C471.579 79.4199 471.414 78.7594 471.085 77.9338ZM468.451 81.4012C468.286 81.8966 468.121 82.2268 467.957 82.557C467.627 82.8873 467.298 83.2175 466.804 83.5477C466.31 83.8779 465.816 83.878 464.993 83.878H452.314C451.655 83.878 450.997 83.7128 450.503 83.5477C450.009 83.2175 449.68 82.8873 449.515 82.557C449.186 82.2268 449.021 81.7315 449.021 81.4012C448.856 80.9059 448.856 80.5757 448.856 80.2454C448.856 79.9152 448.856 79.4199 449.021 79.0896C449.186 78.5943 449.35 78.2641 449.515 77.9338C449.844 77.6036 450.174 77.2734 450.503 76.9432C450.997 76.6129 451.491 76.6129 452.314 76.6129H464.993C465.651 76.6129 466.31 76.778 466.804 76.9432C467.298 77.2734 467.627 77.6036 467.957 77.9338C468.286 78.2641 468.451 78.7594 468.451 79.0896C468.615 79.585 468.615 79.9152 468.615 80.2454C468.615 80.5757 468.615 81.071 468.451 81.4012Z" fill="white"/>
<path d="M315.978 73.4758H294.572C294.078 73.4758 293.749 73.6409 293.584 73.9711C293.255 74.3013 293.09 74.6316 293.09 74.9618C293.09 75.4571 293.255 75.7874 293.584 75.9525C293.914 76.2827 294.243 76.4478 294.572 76.4478H299.512H303.793V81.7315V83.3826V85.6942C303.793 86.1896 303.958 86.5198 304.287 86.6849C304.616 87.0151 304.946 87.1802 305.275 87.1802C305.769 87.1802 306.098 87.0151 306.263 86.6849C306.592 86.3547 306.757 86.0244 306.757 85.6942V83.3826V81.7315V76.4478H309.885H312.849H316.142C316.472 76.4478 316.801 76.2827 317.13 75.9525C317.46 75.6222 317.46 75.292 317.46 74.9618C317.46 74.4664 317.295 74.1362 316.966 73.9711C316.801 73.6409 316.307 73.4758 315.978 73.4758Z" fill="white"/>
</svg>
