<svg width="2696" height="354" viewBox="0 0 2696 354" fill="none" xmlns="http://www.w3.org/2000/svg">
<path d="M428.332 49.532H0.5V0.5H0.941303H429.274C525.959 0.5 604.813 79.5708 604.813 176.528C604.813 273.485 525.959 352.556 429.274 352.556H1.4413V101.508H50.335V303.024V303.524H50.835H428.332C498.273 303.524 554.978 246.659 554.978 176.528C554.978 106.397 498.273 49.532 428.332 49.532Z" stroke="black" stroke-opacity="0.4"/>
<path d="M1724.27 137.226L1724.63 137.602L1724.99 137.226L1819.13 39.0501C1842.57 14.6035 1875.39 0.5 1909.14 0.5H2024.43V52.364H1908.2C1887.37 52.364 1867.46 59.96 1853.23 75.175C1853.23 75.1762 1853.23 75.1773 1853.23 75.1785L1757.22 174.292L1756.88 174.64L1757.22 174.988L1860.77 281.66L1860.77 281.665C1874.99 295.917 1894.88 304.468 1915.73 304.468H2024.43V353.5H1915.73C1881.98 353.5 1849.16 339.397 1825.72 314.95L1595.08 72.3435L1595.08 72.3434L1595.07 72.3349C1580.86 58.0826 1560.96 49.532 1540.11 49.532H1423.88V0.5H1540.11C1573.87 0.5 1606.69 14.6035 1630.13 39.0501L1724.27 137.226ZM1585.65 280.721L1585.66 280.716L1655.9 208.398L1690.04 243.554L1621.65 314.95C1598.21 339.397 1565.39 353.5 1531.64 353.5H1422.94V304.468H1531.64H1531.65L1531.67 304.467C1551.56 303.518 1571.44 294.972 1585.65 280.721Z" stroke="black" stroke-opacity="0.4"/>
<path d="M846.303 1.4438V1.44383H846.308H1097.66C1185.7 1.44383 1258.79 66.1058 1271.24 151.484H1221.39C1209.89 93.8694 1158.95 50.4758 1097.66 50.4758H846.308C785.019 50.4758 734.076 93.8694 722.576 151.484H672.729C685.176 66.097 758.269 0.504665 846.303 1.4438ZM1097.66 352.556H1097.66H846.308C758.265 352.556 685.175 287.894 672.729 202.516H722.576C734.076 260.13 785.019 303.524 846.308 303.524H1098.6C1159.89 303.524 1210.83 260.13 1222.33 202.516H1272.18C1259.73 287.901 1186.64 353.495 1097.66 352.556Z" stroke="black" stroke-opacity="0.4"/>
<path d="M2530.1 280.716L2530.1 280.725L2530.11 280.732C2545.26 294.97 2564.21 303.524 2586 303.524H2694.7V352.556H2586C2552.25 352.556 2519.43 338.453 2495.99 314.006L2495.98 314.004L2393.37 208.276L2393.01 207.904L2392.65 208.279L2348.41 254.533L2348.41 254.535L2290.04 314.949L2290.04 314.95C2266.6 339.397 2233.78 353.5 2200.03 353.5H2091.33V303.524H2200.03C2220.86 303.524 2240.76 295.928 2254.99 280.714C2254.99 280.712 2254.99 280.711 2254.99 280.71L2325.59 208.029L2325.59 208.028L2358.54 174.044L2358.88 173.696L2358.54 173.348L2262.53 74.2347C2262.52 74.2337 2262.52 74.2327 2262.52 74.2317C2248.31 59.0274 2228.41 50.4762 2207.56 50.4762H2091.33V1.44421H2207.56C2241.31 1.44421 2274.13 15.5477 2297.57 39.9943L2297.57 39.9954L2382.29 127.776L2382.3 127.787L2391.7 138.16L2391.71 138.166L2391.71 138.173L2426.54 174.045L2426.55 174.049L2433.13 180.652L2433.14 180.657L2530.1 280.716Z" stroke="black" stroke-opacity="0.4"/>
<path d="M2426.66 102.893L2487.51 39.0501C2510.95 14.6035 2543.77 0.5 2577.53 0.5H2694.7V49.532H2578.47C2557.62 49.532 2537.72 58.0832 2523.5 73.2876C2523.5 73.2886 2523.5 73.2896 2523.5 73.2905L2460.79 138.05L2426.66 102.893Z" stroke="black" stroke-opacity="0.4"/>
<path d="M1320.33 201.516V152.484H1515.14V201.516H1320.33Z" stroke="black" stroke-opacity="0.4"/>
</svg>
