<svg width="33" height="27" viewBox="0 0 33 27" fill="none" xmlns="http://www.w3.org/2000/svg">
<path d="M10.3582 27C6.54548 27 2.99142 25.8955 0 23.9896C2.53981 24.1533 7.02201 23.7613 9.80993 21.1126C5.61598 20.9209 3.72459 17.717 3.47789 16.3479C3.83424 16.4848 5.53375 16.6491 6.49315 16.2657C1.66874 15.0609 0.928629 10.8438 1.0931 9.5568C1.99767 10.1866 3.53271 10.4057 4.13577 10.3509C-0.359708 7.14706 1.25757 2.32759 2.0525 1.28702C5.27861 5.73887 10.1136 8.23919 16.095 8.37827C15.9822 7.88559 15.9227 7.37267 15.9227 6.84584C15.9227 3.06499 18.9908 0 22.7755 0C24.753 0 26.5348 0.836711 27.7856 2.17507C29.1071 1.86665 31.0958 1.14464 32.068 0.520284C31.578 2.27282 30.0523 3.73479 29.1295 4.27666C29.1371 4.29509 29.1219 4.25814 29.1295 4.27666C29.9401 4.15452 32.1335 3.73465 33 3.14909C32.5715 4.13364 30.954 5.77064 29.6266 6.6871C29.8736 17.536 21.5401 27 10.3582 27Z" fill="white"/>
</svg>
